<svg width="22" height="22" viewBox="0 0 22 22" fill="none" xmlns="http://www.w3.org/2000/svg">
<g id="Iconly/Light/Chat">
<g id="Chat">
<path id="Stroke 4" fill-rule="evenodd" clip-rule="evenodd" d="M17.4821 17.4807C14.6806 20.2825 10.5323 20.8878 7.13756 19.3178C6.63641 19.1161 6.22554 18.953 5.83493 18.953C4.74696 18.9594 3.39275 20.0144 2.68892 19.3114C1.9851 18.6075 3.04083 17.2522 3.04083 16.1577C3.04083 15.767 2.88422 15.3635 2.68247 14.8613C1.11177 11.4672 1.71794 7.31746 4.51941 4.5166C8.09564 0.939057 13.9059 0.939058 17.4821 4.51568C21.0648 8.09875 21.0583 13.9041 17.4821 17.4807Z" stroke="#130F26" stroke-width="1.5" stroke-linecap="round" stroke-linejoin="round"/>
<path id="Stroke 11" d="M14.6111 11.3782H14.6194" stroke="#130F26" stroke-width="2" stroke-linecap="round" stroke-linejoin="round"/>
<path id="Stroke 13" d="M10.9362 11.3782H10.9445" stroke="#130F26" stroke-width="2" stroke-linecap="round" stroke-linejoin="round"/>
<path id="Stroke 15" d="M7.26131 11.3782H7.26956" stroke="#130F26" stroke-width="2" stroke-linecap="round" stroke-linejoin="round"/>
</g>
</g>
</svg>
